<svg xmlns="http://www.w3.org/2000/svg" xmlns:xlink="http://www.w3.org/1999/xlink" version="1.1" id="layer" x="0px" y="0px" style="enable-background:new 0 0 652 652;" xml:space="preserve" viewBox="26.4 257.1 600.1 137.7">
<path d="M233.1,304.8c0-2.9-2.2-5.2-5.3-5.2s-5.3,2.4-5.3,5.2v42.4c0,2.9,2.2,5.2,5.3,5.2c3.2,0,5.3-2.4,5.3-5.2V304.8z   M285.4,299.6c-3.1,0-5.2,2.4-5.2,5.2v18.1l0.3,16.2L274,324l-8.4-17.2c-2.6-5.4-5.5-7.1-9.7-7.1c-6.2,0-8.9,3.9-8.9,9.5v38.2  c0,2.9,2.1,5.2,5.2,5.2c3.1,0,5.2-2.4,5.2-5.2l-0.1-17.9l-0.2-18.3l6.9,16.8l8.5,17.5c2.7,5.6,5.5,7.2,9.7,7.2  c5.5,0,8.4-3.4,8.4-9.7v-38.1C290.6,301.9,288.5,299.6,285.4,299.6z M329.8,310.4l12,0.3c2.8,0.1,5-2.1,5-5.2c0-3.1-2.2-5.2-5-5.2  l-34.8-0.1c-2.7,0-5,2.1-5,5.2c0,3.1,2.3,5.2,5,5.2l12.1-0.2v36.8c0,2.9,2.2,5.2,5.3,5.2c3.2,0,5.4-2.4,5.4-5.2V310.4z M365.4,351.8  h25.9c2.7,0,4.9-2.1,4.9-4.9c0-2.9-2.2-5-4.9-5l-22.5,0.1v-12.3h19.5c2.7,0,4.8-2,4.8-4.7c0-2.8-2.1-4.8-4.8-4.8l-19.5,0.1v-10.2  h22.5c2.7,0,4.9-2.1,4.9-5c0-2.9-2.2-4.9-4.9-4.9l-25.8,0.1c-4.7,0-7.4,2.7-7.4,7.4v36.8C358.1,349.2,360.7,351.8,365.4,351.8z   M438.3,330.8c7-1.8,11.1-7.3,11.1-14.5c0-8-5.2-16.1-17.8-16.1h-16.2c-4.7,0-7.4,2.7-7.4,7.4v39.6c0,2.9,2.2,5.2,5.5,5.2  c3.2,0,5.5-2.4,5.5-5.2l-0.1-13.9h8.9l9.1,16.4c1.5,2.5,4.6,3.5,7.4,2.1c2.9-1.5,3.7-4.6,2.1-7.1L438.3,330.8z M418.9,310h12.8  c4.3,0,7.1,2.7,7.1,6.8c0,4-2.6,6.9-6.9,6.9h-13V310z M482,352.8c10.8,0,17.7-4.9,20-12.7c1.3-4.5-1.4-7.7-5.4-7.7  c-2.4,0-4.1,1.3-5,4c-1.5,4.1-5.1,6.7-10.2,6.7c-8.2,0-11.7-5.5-11.7-17c0-11.3,3.6-16.7,11.7-16.7c5.1,0,8,2.1,9.9,7.1  c1,2.8,2.7,4.1,5.2,4.1c3.8,0,6.6-3.1,5.5-7.4c-2.4-8.7-9.2-13.6-20.3-13.6c-15.2,0-22.9,9.3-22.9,26.5  C458.8,343.3,466.5,352.8,482,352.8z M534.4,352.6c15.6,0,23.4-9.6,23.4-26.7c0-17.2-8-26.8-23.4-26.8c-15.5,0-23.2,9.7-23.3,26.8  C511.1,343.1,519,352.6,534.4,352.6z M534.4,342.8c-8.7,0-12.5-5.5-12.5-16.8c0-11.4,3.8-16.9,12.4-16.9c8.6,0,12.7,5.5,12.6,16.9  C546.9,337.3,543.1,342.8,534.4,342.8z M626.3,308.8c0-5.8-3.6-9.3-9.2-9.3c-4.6,0-8,2.5-9.7,8.3l-5.7,18.5l-3.8,13.3l-3.6-13.3  l-6-18.5c-1.7-5.4-4.6-8.3-9.8-8.3c-5.7,0-9.2,3.4-9.2,9.3v38.5c0,2.9,2.1,5.2,5.1,5.2c3,0,5.1-2.4,5.1-5.2l-0.1-18.6l-0.5-19.9  l5.8,20.3l6.2,18c1.3,4,3.8,5.3,7.1,5.3c3,0,5.5-1.1,6.7-5.2l5.9-18.1l6.3-20.5l-0.6,20v18.6c0,2.9,2.1,5.2,5.1,5.2  c3,0,5.1-2.4,5.1-5.2L626.3,308.8z"/>
<path d="M145.7,332.9c0,1.2-0.5,2.4-1.3,3.3c-0.9,0.9-2,1.4-3.2,1.4c-1.2,0-2.4-0.5-3.2-1.4c-0.9-0.9-1.3-2-1.3-3.3v-41.4  c0-1.2,0.5-2.4,1.3-3.3c0.9-0.9,2-1.4,3.2-1.4c1.2,0,2.4,0.5,3.2,1.4c0.9,0.9,1.3,2,1.3,3.3V332.9z M144.1,361.6  c-0.6,0.6-17.6,15-48.9,15c-31.2,0-48.2-14.3-48.9-14.9c-0.5-0.4-0.8-0.9-1.1-1.4c-0.3-0.5-0.4-1.1-0.5-1.7c0-0.6,0-1.2,0.2-1.8  c0.2-0.6,0.5-1.1,0.9-1.6c0.8-0.9,1.9-1.5,3.1-1.6c1.2-0.1,2.4,0.3,3.3,1.1c0.3,0.2,15.5,12.7,42.9,12.7s42.8-12.6,42.9-12.7  c0.9-0.8,2.1-1.2,3.3-1.1c1.2,0.1,2.3,0.7,3.1,1.6c0.8,0.9,1.2,2.1,1.1,3.3C145.6,359.7,145,360.8,144.1,361.6L144.1,361.6z   M44.7,291.6c0.1-1.2,0.6-2.4,1.5-3.2c0.9-0.8,2.1-1.3,3.3-1.2c1.1,0.1,2.2,0.6,3,1.4c0.8,0.8,1.3,1.9,1.3,3v41.3  c0,1.2-0.5,2.4-1.3,3.3c-0.9,0.9-2,1.4-3.2,1.4c-1.2,0-2.4-0.5-3.2-1.4c-0.9-0.9-1.3-2-1.3-3.3V291.6z M67.7,282.4  c0.1-1.2,0.6-2.4,1.5-3.2c0.9-0.8,2.1-1.3,3.3-1.2c1.1,0.1,2.2,0.6,3,1.4c0.8,0.8,1.3,1.9,1.3,3v61.2c0,1.2-0.5,2.4-1.3,3.3  c-0.9,0.9-2,1.4-3.2,1.4c-1.2,0-2.4-0.5-3.2-1.4c-0.9-0.9-1.3-2-1.3-3.3V282.4z M90.8,280.1c0-1.2,0.5-2.4,1.3-3.3  c0.9-0.9,2-1.4,3.2-1.4c1.2,0,2.4,0.5,3.2,1.4c0.9,0.9,1.3,2,1.3,3.3v66.6c0,1.2-0.5,2.4-1.3,3.3c-0.9,0.9-2,1.4-3.2,1.4  c-1.2,0-2.4-0.5-3.2-1.4c-0.9-0.9-1.3-2-1.3-3.3V280.1z M113.5,282.4c0-1.2,0.5-2.4,1.3-3.3c0.9-0.9,2-1.4,3.2-1.4  c1.2,0,2.4,0.5,3.2,1.4c0.9,0.9,1.3,2,1.3,3.3v61.2c0,1.2-0.5,2.4-1.3,3.3c-0.9,0.9-2,1.4-3.2,1.4c-1.2,0-2.4-0.5-3.2-1.4  c-0.9-0.9-1.3-2-1.3-3.3V282.4z M146.9,257.1H43.6c-2.3,0-4.5,0.4-6.6,1.3c-2.1,0.9-4,2.1-5.6,3.7c-1.6,1.6-2.9,3.5-3.7,5.6  c-0.9,2.1-1.3,4.3-1.3,6.6v103.3c0,2.3,0.5,4.5,1.3,6.6c0.9,2.1,2.1,4,3.7,5.6c1.6,1.6,3.5,2.9,5.6,3.7c2.1,0.9,4.3,1.3,6.6,1.3  h103.3c2.2,0,4.5-0.4,6.6-1.3c2.1-0.9,4-2.1,5.6-3.7c1.6-1.6,2.9-3.5,3.7-5.6c0.9-2.1,1.3-4.3,1.3-6.6V274.3c0-2.3-0.5-4.5-1.3-6.6  c-0.9-2.1-2.1-4-3.7-5.6c-1.6-1.6-3.5-2.9-5.6-3.7C151.4,257.5,149.2,257.1,146.9,257.1"/>
</svg>